<svg width="43" height="43" viewBox="0 0 43 43" fill="none" xmlns="http://www.w3.org/2000/svg">
<path d="M34.2632 36.7728L32.6868 32.0428C32.4165 31.2321 31.9332 30.5091 31.2876 29.9492C30.642 29.3894 29.8578 29.0134 29.0171 28.8606L24.4663 28.0325V27.6798C25.2582 27.2201 25.9473 26.6052 26.4962 25.8773H27.871C28.9973 25.8773 29.9139 24.9607 29.9139 23.8343V15.6626C29.9139 10.7814 25.9426 6.80999 21.0615 6.80999C16.1803 6.80999 12.209 10.7814 12.209 15.6626V20.4295C12.209 21.7424 13.1426 22.8408 14.3806 23.0968C14.7626 25.054 15.9856 26.7101 17.6567 27.6798V28.0325L13.1051 28.8606C12.2645 29.0134 11.4804 29.3894 10.8349 29.9493C10.1894 30.5091 9.70629 31.2322 9.43613 32.0428L9.16375 32.8607L6.84441 30.5413C6.57883 30.2757 6.57883 29.8433 6.84441 29.5777L9.53419 26.8885L4.48557 21.8398L1.44577 24.8796C0.545542 25.7799 0.0498047 26.977 0.0498047 28.2505C0.0498047 29.5239 0.545542 30.7203 1.44577 31.6206L10.6489 40.824C11.5491 41.7242 12.7463 42.2206 14.0197 42.2206C15.2931 42.2206 16.4895 41.7242 17.3686 40.8444L20.6856 37.8052L19.6512 36.7728H34.2632ZM28.552 23.8343C28.552 24.2102 28.2463 24.5153 27.871 24.5153H27.2984C27.498 24.0602 27.6469 23.5845 27.7423 23.0968C28.0338 23.0362 28.3021 22.9205 28.552 22.7747V23.8343ZM27.871 21.6021V19.2568C28.2762 19.4931 28.552 19.9276 28.552 20.4295C28.552 20.9313 28.2762 21.3658 27.871 21.6021ZM14.2519 21.6021C13.8467 21.3658 13.5709 20.9313 13.5709 20.4295C13.5709 19.9276 13.8467 19.4931 14.2519 19.2568V21.6021ZM14.2519 17.0246V17.8023C14.0131 17.8647 13.784 17.9595 13.5709 18.0842V15.6626C13.5709 11.5325 16.9314 8.17193 21.0615 8.17193C25.1915 8.17193 28.552 11.5325 28.552 15.6626V18.0842C28.3391 17.9593 28.1099 17.8644 27.871 17.8023V17.0246H27.1901C25.1765 17.0246 23.2834 16.2401 21.8589 14.8162L21.0615 14.0188L20.2641 14.8162C18.8395 16.2401 16.9464 17.0246 14.9328 17.0246H14.2519ZM15.6138 21.7914V18.3607C17.6587 18.2068 19.5654 17.363 21.0615 15.9405C22.5575 17.363 24.4642 18.2074 26.5091 18.3607V21.7914C26.5091 22.7843 26.2381 23.7131 25.7723 24.5153H21.0615V25.8773H24.6528C23.6927 26.7223 22.4377 27.2392 21.0615 27.2392C18.0577 27.2392 15.6138 24.7952 15.6138 21.7914ZM23.1043 28.2872V28.3192L21.0615 30.3622L19.0186 28.3192V28.2872C19.6641 28.4902 20.3499 28.6012 21.0615 28.6012C21.7731 28.6012 22.4588 28.4902 23.1043 28.2872ZM10.7272 32.4732C10.9203 31.8941 11.2654 31.3775 11.7265 30.9775C12.1876 30.5775 12.7477 30.3088 13.3482 30.1994L18.1081 29.3346L21.0615 32.288L24.0141 29.3352L28.7733 30.2001C29.3739 30.3093 29.9341 30.578 30.3952 30.978C30.8563 31.3781 31.2014 31.8947 31.3943 32.4739L32.3742 35.4109H18.2893L15.6369 32.7585L12.6898 35.4245C12.433 35.6826 11.9843 35.6826 11.7269 35.4245L10.2397 33.9373L10.7272 32.4732ZM4.48489 23.7656L7.60776 26.8885L6.86824 27.628L3.74537 24.5051L4.48489 23.7656ZM16.4255 39.8624C15.7827 40.5039 14.9274 40.8587 14.0183 40.8587C13.1092 40.8587 12.2539 40.5039 11.6104 39.8611L2.40728 30.6584C1.76446 30.0155 1.41036 29.1602 1.41036 28.2511C1.41036 27.3414 1.76446 26.4861 2.40728 25.8432L2.78181 25.4687L5.90468 28.5916L5.88017 28.6161C5.08413 29.4129 5.08413 30.7088 5.88017 31.5055L10.7633 36.3888C11.1494 36.7742 11.6622 36.9874 12.2083 36.9874C12.7544 36.9874 13.2672 36.7749 13.6281 36.4126L13.6792 36.367L16.8164 39.5042L16.4255 39.8624ZM17.8215 38.5822L14.6911 35.4518L15.5906 34.6387L18.7156 37.7637L17.8215 38.5822ZM40.1283 0.000244141H30.5949C29.4686 0.000244141 28.552 0.916835 28.552 2.04317V7.49096C28.552 8.61729 29.4686 9.53388 30.5949 9.53388H32.4137L31.7096 13.6408L38.2809 9.53388H40.1283C41.2546 9.53388 42.1712 8.61729 42.1712 7.49096V2.04317C42.1712 0.916835 41.2546 0.000244141 40.1283 0.000244141ZM40.8093 7.49096C40.8093 7.86618 40.5035 8.17193 40.1283 8.17193H37.89L33.5652 10.8747L34.0289 8.17193H30.5949C30.2197 8.17193 29.9139 7.86618 29.9139 7.49096V2.04317C29.9139 1.66795 30.2197 1.36219 30.5949 1.36219H40.1283C40.5035 1.36219 40.8093 1.66795 40.8093 2.04317V7.49096Z" fill="#FEAF00"/>
<path d="M31.2755 2.72419H39.447V4.08614H31.2755V2.72419ZM31.2755 5.44808H36.7232V6.81003H31.2755V5.44808ZM38.0851 5.44808H39.447V6.81003H38.0851V5.44808ZM21.0612 2.04321C12.1638 2.04321 4.49957 8.19786 2.50709 16.7829L1.21667 14.6317L0.0488281 15.3324L2.4424 19.3209L6.43077 16.9273L5.73006 15.7594L3.88467 16.8667C5.8145 9.01298 12.8767 3.40516 21.0612 3.40516C22.85 3.40516 24.6151 3.67074 26.3073 4.19509L26.7104 2.89443C24.8875 2.32922 22.9869 2.04321 21.0612 2.04321ZM41.8399 15.0784L37.8516 12.6848L35.4587 16.6739L36.6265 17.3747L37.8182 15.3883C38.4453 17.2235 38.7661 19.1432 38.7661 21.1105C38.7661 25.1602 37.3633 29.1194 34.8172 32.258L35.8747 33.1161C38.6176 29.7357 40.128 25.4714 40.128 21.1105C40.128 19.0274 39.7923 16.9933 39.1379 15.0457L41.1392 16.2463L41.8399 15.0784Z" fill="#FEAF00"/>
</svg>
