<svg width="12" height="10" viewBox="0 0 12 10" fill="none" xmlns="http://www.w3.org/2000/svg">
<path d="M5.16691 0.440861V2.2363C5.16691 2.47987 4.94673 2.67745 4.67493 2.67745C3.70589 2.67745 3.17907 3.56837 3.1061 5.32697H4.67493C4.94673 5.32697 5.16691 5.52431 5.16691 5.76816V9.55914C5.16691 9.80271 4.94673 10 4.67493 10H0.491976C0.220184 10 0 9.80271 0 9.55914V5.76816C0 4.92513 0.0947043 4.15109 0.28131 3.4678C0.472781 2.76768 0.766518 2.15532 1.15411 1.6478C1.55323 1.12652 2.05256 0.717192 2.63824 0.432183C3.22772 0.145515 3.91296 0 4.67525 0C4.94673 0 5.16691 0.197482 5.16691 0.440861ZM11.5087 0C10.7466 0 10.0611 0.145468 9.47164 0.432183C8.88592 0.717192 8.38659 1.12652 7.98752 1.6478C7.59966 2.15561 7.30614 2.76768 7.1144 3.46832C6.9278 4.15157 6.83341 4.92508 6.83341 5.76811V9.5591C6.83341 9.80266 7.05364 9.99995 7.32507 9.99995H11.5084C11.7798 9.99995 12 9.80266 12 9.5591V5.76811C12 5.52426 11.7798 5.32692 11.5084 5.32692H9.96161C10.0336 3.56832 10.5531 2.6774 11.5084 2.6774C11.7798 2.6774 12 2.47983 12 2.23626V0.440861C12.0003 0.197482 11.7801 0 11.5087 0Z" fill="#B31942"/>
</svg>
