<svg width="52" height="52" viewBox="0 0 52 52" fill="none" xmlns="http://www.w3.org/2000/svg">
<g clip-path="url(#clip0_18_341)">
<path d="M7.61524 7.61522C-2.52195 17.7524 -2.52195 34.2476 7.61524 44.3848C17.7524 54.522 34.2476 54.522 44.3848 44.3848C54.522 34.2476 54.522 17.7524 44.3848 7.61522C34.2476 -2.52197 17.7524 -2.52197 7.61524 7.61522ZM42.0867 42.0867C33.2163 50.957 18.7837 50.957 9.91334 42.0867C1.04297 33.2163 1.04297 18.7837 9.91334 9.91332C18.7837 1.04295 33.2163 1.04295 42.0867 9.91332C50.9571 18.7837 50.9571 33.2163 42.0867 42.0867ZM32.8943 17.481C33.1077 17.4808 33.319 17.5228 33.5162 17.6044C33.7134 17.686 33.8926 17.8057 34.0435 17.9565C34.1944 18.1074 34.314 18.2866 34.3956 18.4838C34.4773 18.681 34.5192 18.8923 34.5191 19.1057V30.5962C34.5191 31.0449 34.3372 31.4514 34.0434 31.7452C33.7495 32.0391 33.343 32.2209 32.8943 32.221C32.6809 32.2211 32.4696 32.1791 32.2724 32.0975C32.0752 32.0159 31.896 31.8963 31.7452 31.7454C31.5943 31.5945 31.4746 31.4153 31.393 31.2181C31.3114 31.0209 31.2694 30.8096 31.2696 30.5962L31.2696 23.0286L20.2548 34.0433C19.6202 34.6779 18.5918 34.6785 17.9567 34.0433C17.3215 33.4082 17.3221 32.3798 17.9567 31.7452L28.9715 20.7305L21.4038 20.7305C20.5058 20.7305 19.7788 20.0034 19.7791 19.1057C19.7794 18.208 20.5061 17.4807 21.4038 17.481H32.8943Z" fill="white"/>
</g>
<defs>
<clipPath id="clip0_18_341">
<rect width="52" height="52" fill="white"/>
</clipPath>
</defs>
</svg>
