<svg width="42" height="42" viewBox="0 0 42 42" fill="none" xmlns="http://www.w3.org/2000/svg">
<g clip-path="url(#clip0_18_338)">
<path d="M6.151 6.15076C-2.03673 14.3385 -2.03673 27.6615 6.151 35.8492C14.3387 44.037 27.6618 44.037 35.8495 35.8492C44.0372 27.6615 44.0372 14.3385 35.8495 6.15076C27.6618 -2.03698 14.3387 -2.03698 6.151 6.15076ZM33.9933 33.9931C26.8288 41.1576 15.1717 41.1576 8.00716 33.9931C0.842628 26.8286 0.842628 15.1714 8.00716 8.00691C15.1717 0.842386 26.8288 0.842386 33.9933 8.00691C41.1579 15.1714 41.1579 26.8286 33.9933 33.9931ZM26.5687 14.1192C26.7411 14.1191 26.9118 14.153 27.071 14.2189C27.2303 14.2848 27.375 14.3815 27.4969 14.5034C27.6188 14.6252 27.7154 14.77 27.7813 14.9292C27.8472 15.0885 27.8811 15.2592 27.881 15.4315V24.7123C27.881 25.0747 27.7341 25.403 27.4968 25.6404C27.2594 25.8777 26.9311 26.0246 26.5687 26.0246C26.3963 26.0247 26.2257 25.9908 26.0664 25.9249C25.9071 25.859 25.7624 25.7624 25.6405 25.6405C25.5187 25.5186 25.422 25.3739 25.3561 25.2146C25.2902 25.0554 25.2563 24.8847 25.2564 24.7123L25.2564 18.6L16.3599 27.4965C15.8473 28.0091 15.0167 28.0095 14.5037 27.4965C13.9907 26.9835 13.9912 26.1529 14.5037 25.6404L23.4003 16.7438L17.2879 16.7438C16.5626 16.7438 15.9754 16.1566 15.9756 15.4315C15.9759 14.7065 16.5629 14.119 17.2879 14.1192L26.5687 14.1192Z" fill="#1D1D1F"/>
</g>
<defs>
<clipPath id="clip0_18_338">
<rect width="42" height="42" fill="white"/>
</clipPath>
</defs>
</svg>
