<svg width="47" height="44" viewBox="0 0 47 44" fill="none" xmlns="http://www.w3.org/2000/svg">
<path d="M16.1829 23.032L27.0972 32.8763C27.2765 33.0397 27.4887 33.1682 27.7215 33.2545C27.9543 33.3408 28.2031 33.3831 28.4536 33.3791C28.7041 33.3751 28.9514 33.3248 29.181 33.231C29.4107 33.1373 29.6183 33.002 29.7918 32.833C30.1395 32.4952 30.3301 32.0426 30.322 31.5743C30.3138 31.1059 30.1077 30.6597 29.7485 30.3332L20.2014 21.6197L29.4424 12.6929C29.7901 12.355 29.9807 11.9025 29.9725 11.4341C29.9644 10.9657 29.7582 10.5196 29.399 10.1931C29.2204 10.0284 29.0085 9.89849 28.7756 9.81091C28.5428 9.72333 28.2936 9.67981 28.0425 9.68287C27.7914 9.68788 27.5439 9.73938 27.3142 9.83439C27.0845 9.92941 26.8773 10.066 26.7044 10.2364L16.1377 20.4258C15.9479 20.595 15.7977 20.7989 15.6965 21.0249C15.5952 21.2508 15.5451 21.4939 15.5494 21.7387C15.5536 21.9836 15.6121 22.2249 15.7211 22.4475C15.8302 22.6701 15.9874 22.8691 16.1829 23.032Z" fill="white"/>
</svg>
