<svg width="12" height="11" viewBox="0 0 12 11" fill="none" xmlns="http://www.w3.org/2000/svg">
<path d="M6.85365 9.57012L6.84983 7.77468C6.84932 7.53111 7.06908 7.33307 7.34087 7.33249C8.30991 7.33043 8.83484 6.4384 8.90407 4.67964L7.33524 4.68298C7.06345 4.68355 6.84285 4.48668 6.84233 4.24283L6.83427 0.451861C6.83375 0.208293 7.05352 0.010536 7.32531 0.00995839L11.5083 0.00106826C11.78 0.000490611 12.0007 0.197312 12.0012 0.44088L12.0092 4.23185C12.011 5.07488 11.918 5.84912 11.7328 6.5328C11.5428 7.23333 11.2504 7.84631 10.8639 8.35466C10.4659 8.87678 9.9674 9.28717 9.38234 9.57342C8.79346 9.86135 8.10853 10.0083 7.34624 10.0099C7.07477 10.0105 6.85417 9.8135 6.85365 9.57012ZM0.512852 10.0245C1.27487 10.0228 1.96012 9.87592 2.54894 9.58795C3.13406 9.3017 3.63252 8.89131 4.03048 8.36918C4.41726 7.86055 4.70948 7.24785 4.89973 6.5468C5.08488 5.86317 5.17762 5.08945 5.17583 4.24642L5.16778 0.455449C5.16726 0.211881 4.9466 0.0150597 4.67518 0.0156366L0.491862 0.0245275C0.220441 0.0251043 0.000677734 0.222861 0.0011954 0.466429L0.00925245 4.2574C0.00977072 4.50125 0.230373 4.69812 0.501794 4.69755L2.04857 4.69426C1.98029 6.45301 1.46271 7.34503 0.507425 7.34706C0.236004 7.34764 0.0162411 7.54568 0.0167588 7.78925L0.0205746 9.58464C0.0207752 9.82802 0.241378 10.025 0.512852 10.0245Z" fill="#B31942"/>
</svg>
